<svg id="ejHcGR0QtDB1" xmlns="http://www.w3.org/2000/svg" xmlns:xlink="http://www.w3.org/1999/xlink" viewBox="0 0 120 120" shape-rendering="geometricPrecision" text-rendering="geometricPrecision"><path d="M55.868581,77.444025q2.302592,15.197112,6.447259,15.197112c4.144667,0,5.98674-8.526224,2.302592-20.039187" transform="translate(-4.567947-59.38028)" fill="none" stroke="#fff" stroke-width="3" stroke-linecap="round" stroke-linejoin="round"/><path d="M56.789618,78.82558q-1.842075,11.512964-3.684149,16.578668c-1.842074,5.065704-14.736592-2.605186-2.302592-21.486446" transform="translate(-5.567949-60.380281)" fill="none" stroke="#fff" stroke-width="3" stroke-linecap="round" stroke-linejoin="round"/><path d="M85.802286,92.641137q0,12.89452-14.736593,17.499704Q74.749841,98.16736,85.802286,92.641137Z" transform="translate(-12.561858-61.093262)" fill="none" stroke="#fff" stroke-width="3" stroke-linecap="round" stroke-linejoin="round"/><path d="M42.974061,101.390989q1.381555,10.591927,7.828816,8.749852q1.842073-8.749852-7.828816-8.749852Z" transform="translate(-12.561859-61.093262)" fill="none" stroke="#fff" stroke-width="3" stroke-linecap="round" stroke-linejoin="round"/><path d="M85.802286,117.509138c0-.460519,1.381556-11.052445,9.210371-6.907778c2.302592,4.144666,4.144665,11.512963-12.434002,25.328519-2.763111,2.763111-5.065703,16.578667,1.381556,11.973482s11.052445-8.289333,15.197112-17.039186s9.670889-10.591926,9.670889-11.052445q0-.460519-9.670889.460518-.000001-7.368296,4.605185-14.736593c4.605186-7.368297,1.842075-13.355039,1.842075-13.815557s-17.499706,14.276076-16.11815,4.605186s8.838652-10.108307,12.264613-22.099171c-24.552722-.570994-23.410735-2.283975-57.099353.570993Q26.3799,106.20175,48.881838,120.193285q2.381557,2.381557,2.842075,7.907779c.921037,1.381555-19.634078,19.786259-1.504272,44.484013" transform="translate(-12.561858-61.093261)" fill="none" stroke="#fff" stroke-width="3" stroke-linecap="round" stroke-linejoin="round"/><path d="M85.802286,117.969657q-12.434-2.302594-18.88126,3.223629c-6.44726,5.526223-6.907779,12.355037-6.907779,16.499704s-19.35851,4.484398-10.222613,35.318048" transform="translate(-12.561857-61.093261)" fill="none" stroke="#fff" stroke-width="3" stroke-linecap="round" stroke-linejoin="round"/><path d="M83.499693,124.416916q-13.355038-5.526223-12.894519,4.144667c.460519,9.67089,11.052445,19.802297,3.22363,25.32852s-13.815557,5.526222-12.434001,12.894519c0-.000001,2.223629-6.986741,11.894519-6.526223c5.986741,0,10.512964-8.289333,4.526223-23.025927s-.302593-11.434,5.684148-12.815556Z" transform="translate(-15.561859-61.093261)" fill="none" stroke="#fff" stroke-width="3" stroke-linecap="round" stroke-linejoin="round"/></svg>
