<svg id="eGQ6vSR0OhL1" xmlns="http://www.w3.org/2000/svg" xmlns:xlink="http://www.w3.org/1999/xlink" viewBox="0 0 100 100" shape-rendering="geometricPrecision" text-rendering="geometricPrecision"><path d="M78.70699,71.31213c-5.39162-12.08987-15.24053-3.58449-15.72815-3.58996C54.3,58.84668,50.07081,73.59231,50.07445,73.26723c-6.82171-15.03198-12.61986-5.3433-12.62168-5.18077-11.31213-7.9955-14.43637,3.64146-14.22903,3.9283C0.68994,58.7657,0.63557,44.22675,23.06063,28.39791c8.98554,13.12225,16.24983,14.13318,21.79286,3.03279.00182-.16254,5.13755,5.74717,10.08113-.21219.32508.00365,6.79076,17.79516,21.81861-3.16935c40.86773,23.21627,1.95741,42.93789,1.95377,43.26297h-.00001Zm-55.47411.70801c-.00354-.00004-.0066-.00185-.00914-.00538.00305.00179.0061.00358.00914.00538ZM22.13627,57.878c4.01825,0,7.27568-3.25743,7.27568-7.27568s-3.25743-7.27568-7.27568-7.27568-7.27568,3.25743-7.27568,7.27568s3.25743,7.27568,7.27568,7.27568Zm57,0c4.01825,0,7.27568-3.25743,7.27568-7.27568s-3.25743-7.27568-7.27568-7.27568-7.27568,3.25743-7.27568,7.27568s3.25743,7.27568,7.27568,7.27568Z" transform="translate(.000001 0)" fill="#ffc028" stroke="#202020" stroke-width="0.5" stroke-linejoin="round"/><ellipse rx="4.388857" ry="4.388857" transform="matrix(1.657762 0 0 1.657762 22.13627 50.602316)" fill="none" stroke="#000"/><ellipse rx="4.388857" ry="4.388857" transform="matrix(1.657762 0 0 1.657762 79.13627 50.602316)" fill="none" stroke="#000"/><ellipse rx="4.388857" ry="4.388857" transform="matrix(2.366082 0 0 2.366082 50.13627 50.602316)" fill="#b57923" stroke="#000"/></svg>
