<svg xmlns="http://www.w3.org/2000/svg" xmlns:xlink="http://www.w3.org/1999/xlink" version="1.1" width="256" height="256" viewBox="0 0 256 256" xml:space="preserve">

<defs>
</defs>
<g style="stroke: none; stroke-width: 0; stroke-dasharray: none; stroke-linecap: butt; stroke-linejoin: miter; stroke-miterlimit: 10; fill: none; fill-rule: nonzero; opacity: 1;" transform="translate(1.4065934065934016 1.4065934065934016) scale(2.81 2.81)" >
	<path d="M 85.131 65.321 C 88.237 59.212 90 52.31 90 45 c 0 -7.31 -1.763 -14.211 -4.869 -20.32 c -0.057 -0.119 -0.114 -0.236 -0.179 -0.349 C 77.451 9.892 62.364 0 45 0 C 27.634 0 12.545 9.895 5.045 24.336 c -0.062 0.107 -0.116 0.218 -0.17 0.331 C 1.766 30.779 0 37.685 0 45 c 0 7.263 1.74 14.123 4.809 20.203 c 0.068 0.153 0.145 0.298 0.226 0.441 C 12.531 80.097 27.626 90 45 90 c 17.364 0 32.451 -9.892 39.952 -24.33 C 85.017 65.557 85.074 65.44 85.131 65.321 z M 45 80 c -2.601 0 -6.666 -6.05 -9.04 -16.644 c 6.025 -0.461 12.055 -0.462 18.079 -0.001 C 51.666 73.95 47.601 80 45 80 z M 34.439 53.45 c -0.24 -2.651 -0.378 -5.468 -0.378 -8.45 c 0 -2.982 0.138 -5.799 0.378 -8.45 c 3.521 0.291 7.043 0.454 10.566 0.454 c 3.52 0 7.039 -0.162 10.557 -0.453 c 0.24 2.651 0.378 5.468 0.378 8.449 c 0 2.981 -0.137 5.797 -0.378 8.448 C 48.523 52.867 41.477 52.867 34.439 53.45 z M 10 45 c 0 -4.299 0.783 -8.416 2.207 -12.224 c 4.095 1.058 8.2 1.903 12.309 2.563 c -0.3 3.18 -0.455 6.422 -0.455 9.661 s 0.156 6.481 0.455 9.661 c -4.109 0.66 -8.213 1.505 -12.309 2.564 C 10.783 53.417 10 49.299 10 45 z M 45 10 c 2.601 0 6.666 6.05 9.04 16.645 c -6.024 0.461 -12.055 0.461 -18.079 -0.001 C 38.334 16.05 42.399 10 45 10 z M 65.484 35.341 c 4.109 -0.66 8.214 -1.505 12.309 -2.563 C 79.217 36.585 80 40.702 80 45 c 0 4.298 -0.783 8.415 -2.206 12.222 c -4.096 -1.058 -8.2 -1.903 -12.309 -2.563 c 0.3 -3.18 0.455 -6.421 0.455 -9.659 C 65.939 41.762 65.784 38.52 65.484 35.341 z M 72.753 23.71 c -2.909 0.687 -5.822 1.267 -8.738 1.737 c -0.898 -4.325 -2.109 -8.353 -3.627 -11.874 C 65.251 15.964 69.478 19.452 72.753 23.71 z M 29.612 13.573 c -1.517 3.52 -2.728 7.548 -3.626 11.872 c -2.916 -0.471 -5.828 -1.05 -8.737 -1.737 C 20.523 19.451 24.75 15.964 29.612 13.573 z M 17.249 66.292 c 2.909 -0.687 5.821 -1.267 8.737 -1.737 c 0.898 4.324 2.109 8.352 3.626 11.872 C 24.75 74.036 20.523 70.549 17.249 66.292 z M 60.388 76.427 c 1.518 -3.521 2.728 -7.549 3.627 -11.874 c 2.916 0.47 5.829 1.05 8.738 1.737 C 69.479 70.548 65.251 74.036 60.388 76.427 z" style="stroke: none; stroke-width: 1; stroke-dasharray: none; stroke-linecap: butt; stroke-linejoin: miter; stroke-miterlimit: 10; fill: #9f9f9f; fill-rule: nonzero; opacity: 1;" transform=" matrix(1 0 0 1 0 0) " stroke-linecap="round" />
</g>
</svg>