<svg id="e0FVhwIu4CA1" xmlns="http://www.w3.org/2000/svg" xmlns:xlink="http://www.w3.org/1999/xlink" viewBox="0 0 300 300" shape-rendering="geometricPrecision" text-rendering="geometricPrecision"><path d="M85.802286,92.641137q0,12.89452-14.736593,17.499704Q74.749841,98.16736,85.802286,92.641137Z" transform="translate(.000001 0)" fill="none" stroke="#fff" stroke-width="1.5" stroke-linecap="round" stroke-linejoin="round"/><path d="M42.974061,101.390989q1.381555,10.591927,7.828816,8.749852q1.842073-8.749852-7.828816-8.749852Z" fill="none" stroke="#fff" stroke-width="1.5" stroke-linecap="round" stroke-linejoin="round"/><path d="M55.868581,77.444025q2.302592,15.197112,6.447259,15.197112c4.144667,0,5.98674-5.526224,2.302592-17.039187s-3.22363-40.065115,70.919856-40.525633" transform="translate(.000002 0.000001)" fill="none" stroke="#fff" stroke-width="1.5" stroke-linecap="round" stroke-linejoin="round"/><path d="M56.789618,78.82558q-1.842075,11.512964-3.684149,16.578668c-1.842074,5.065704-14.736592-4.605186-2.302592-23.486446s21.262816-37.223039,84.511782-35.841484" transform="translate(-1-1)" fill="none" stroke="#fff" stroke-width="1.5" stroke-linecap="round" stroke-linejoin="round"/><path d="M85.802286,117.509138c0-.460519,1.381556-11.052445,9.210371-6.907778c2.302592,4.144666,4.144665,11.512963-12.434002,25.328519-2.763111,2.763111-5.065703,16.578667,1.381556,11.973482s11.052445-8.289333,15.197112-17.039186s9.670889-10.591926,9.670889-11.052445q0-.460519-9.670889.460518-.000001-7.368296,4.605185-14.736593c4.605186-7.368297,1.842075-13.355039,1.842075-13.815557s-17.499706,14.276076-16.11815,4.605186s5.80301-5.501243,8.105603-11.948503" transform="translate(.000001 0.000001)" fill="none" stroke="#fff" stroke-width="1.5" stroke-linecap="round" stroke-linejoin="round"/><path d="M85.802286,117.969657q-12.434-2.302594-18.88126,3.223629c-6.44726,5.526223-6.907779,13.355037-6.907779,17.499704s-30.394226,36.380965,10.131407,68.156745" transform="translate(.000002 0.000001)" fill="none" stroke="#fff" stroke-width="1.5" stroke-linecap="round" stroke-linejoin="round"/><path d="M168.235106,40.142022Q59.092209,10.208317,24.092801,92.641137C0.145836,139.614028,22.250726,246.454331,136.459325,265.79611" transform="translate(.000001 0)" fill="none" stroke="#fff" stroke-width="1.5" stroke-linecap="round" stroke-linejoin="round"/><path d="M27.158505,113.364472c0-.460518-21.025927,82.893337,59.1043,110.52445c10.591926,3.22363,9.052445,7.368296,11.815556,12.894519s3.131679,12.336658,36.289014,28.915325" transform="translate(2 0)" fill="none" stroke="#fff" stroke-width="1.5" stroke-linecap="round" stroke-linejoin="round"/><path d="M28.921616,112.982915q4.381555,2.22363,3,28.933706t3.684149,24.868001q-4.605186-16.578668,3.684148-31.315261t9.591926-15.276075q2.381557,2.381557,2.842075,7.907779c.921037,1.381555-36.841484,36.841483,18.736593,79.367115" fill="none" stroke="#fff" stroke-width="1.5" stroke-linecap="round" stroke-linejoin="round"/><path d="M168.695623,40.142022Q97.775767,29.550096,85.802286,62.707431c-.921038.460519,52.499112-32.696816,94.866819,1.381556s59.406893,80.590744,56.183263,122.958451" transform="translate(.000001 0)" fill="none" stroke="#fff" stroke-width="1.5" stroke-linecap="round" stroke-linejoin="round"/><path d="M110.670288,63.628468c0-.460518-2.302593-5.065704,3.684148-5.065704s92.103708-16.118149,122.497932,127.563637" transform="translate(.000001 0)" fill="none" stroke="#fff" stroke-width="1.5" stroke-linecap="round" stroke-linejoin="round"/><path d="M134.617252,87.575433q14.276074-14.276075,25.789038,2.763111c11.512964,17.039186,25.789039,43.288741,8.749853,80.590744-6.447261,11.512963-27.170596,18.881259-32.696818,34.53889" transform="translate(.000001 0.000002)" fill="none" stroke="#fff" stroke-width="1.5" stroke-linecap="round" stroke-linejoin="round"/><path d="M97.53888,84.27284c0-.460519,10.368296-5.447259,20.499704,6.065704s20.723335,26.710075,9.67089,49.736002-47.433411,46.512374-7.828816,88.419561c18.651008,18.651008,90.261636,29.012668,121.116378,6.447259s35.459929-17.960223,47.893929-18.88126" transform="translate(0 0.000001)" fill="none" stroke="#fff" stroke-width="1.5" stroke-linecap="round" stroke-linejoin="round"/><path d="M110.814954,64.010024q56.499114-2.22363,82.288153,51.65704c25.789039,53.88067-23.486445,112.366524-36.841483,107.30082c0-.46052,3.684148,6.907778,17.039186,5.526222s46.512372-5.68415,62.170003-13.973483c0-.000001-15.65763,8.907778-31.775779,14.894519.921039.000003,21.644371.921037,38.223039-6.44726s32.012668-7.670889,46.288743-6.749852" transform="translate(0 0.000003)" fill="none" stroke="#fff" stroke-width="1.5" stroke-linecap="round" stroke-linejoin="round"/><path d="M134.657151,87.615141q21.604473,19.76259,20.222917,45.551628c-1.381556,25.789038-11.052445,51.578077-13.815557,53.420151.000001,1.381557-.460519-10.591926,1.842073-18.88126.000003-.921034-16.960224,19.197112-6.828816,37.157335" transform="translate(.000002 0)" fill="none" stroke="#fff" stroke-width="1.5" stroke-linecap="round" stroke-linejoin="round"/><path d="M83.499693,124.416916q-13.355038-5.526223-12.894519,4.144667c.460519,9.67089,11.052445,19.802297,3.22363,25.32852s-13.815557,5.526222-12.434001,12.894519c0-.000001,2.223629-6.986741,11.894519-6.526223c5.986741,0,10.512964-8.289333,4.526223-23.025927s-.302593-11.434,5.684148-12.815556Z" transform="translate(-3 0.000001)" fill="none" stroke="#fff" stroke-width="1.5" stroke-linecap="round" stroke-linejoin="round"/></svg>
